<mxfile host="app.diagrams.net" modified="2021-09-28T16:56:38.658Z" agent="5.0 (X11; Linux x86_64) AppleWebKit/537.36 (KHTML, like Gecko) Chrome/91.0.4472.114 Safari/537.36" etag="zkljDKm48LpDaqu9vCk5" version="15.3.5" type="github">
  <diagram name="Page-1" id="c4acf3e9-155e-7222-9cf6-157b1a14988f">
    <mxGraphModel dx="1886" dy="1562" grid="1" gridSize="10" guides="1" tooltips="1" connect="1" arrows="1" fold="1" page="1" pageScale="1" pageWidth="850" pageHeight="1100" background="none" math="0" shadow="0">
      <root>
        <mxCell id="0" />
        <mxCell id="1" parent="0" />
        <mxCell id="k6LRh1UnICJDdB9GZ6B7-2" value="&lt;p style=&quot;margin: 0px ; margin-top: 4px ; text-align: center&quot;&gt;&lt;i&gt;Cell&lt;/i&gt;&lt;/p&gt;&lt;hr size=&quot;1&quot;&gt;&lt;p style=&quot;margin: 0px ; margin-left: 4px&quot;&gt;- pos: int&lt;/p&gt;&lt;hr size=&quot;1&quot;&gt;&lt;p style=&quot;margin: 0px ; margin-left: 4px&quot;&gt;+ getendpos(): Type&lt;/p&gt;" style="verticalAlign=top;align=left;overflow=fill;fontSize=12;fontFamily=Helvetica;html=1;hachureGap=4;pointerEvents=0;" vertex="1" parent="1">
          <mxGeometry x="490" y="-200" width="160" height="90" as="geometry" />
        </mxCell>
        <mxCell id="k6LRh1UnICJDdB9GZ6B7-3" value="&lt;p style=&quot;margin: 0px ; margin-top: 4px ; text-align: center&quot;&gt;&lt;b&gt;NormalCell&lt;/b&gt;&lt;/p&gt;&lt;hr size=&quot;1&quot;&gt;&lt;p style=&quot;margin: 0px ; margin-left: 4px&quot;&gt;- endpos: Int&lt;/p&gt;&lt;hr size=&quot;1&quot;&gt;&lt;p style=&quot;margin: 0px ; margin-left: 4px&quot;&gt;+ getendpos(): int&lt;/p&gt;&lt;p style=&quot;margin: 0px ; margin-left: 4px&quot;&gt;+ getpos(): int&lt;/p&gt;" style="verticalAlign=top;align=left;overflow=fill;fontSize=12;fontFamily=Helvetica;html=1;hachureGap=4;pointerEvents=0;" vertex="1" parent="1">
          <mxGeometry x="320" y="-41" width="160" height="90" as="geometry" />
        </mxCell>
        <mxCell id="k6LRh1UnICJDdB9GZ6B7-4" value="&lt;p style=&quot;margin: 0px ; margin-top: 4px ; text-align: center&quot;&gt;&lt;b&gt;SnakeCell&lt;/b&gt;&lt;/p&gt;&lt;hr size=&quot;1&quot;&gt;&lt;p style=&quot;margin: 0px ; margin-left: 4px&quot;&gt;- endpos: Int&lt;/p&gt;&lt;hr size=&quot;1&quot;&gt;&lt;p style=&quot;margin: 0px 0px 0px 4px&quot;&gt;+ getendpos(): int&lt;/p&gt;&lt;p style=&quot;margin: 0px 0px 0px 4px&quot;&gt;+ getpos(): int&lt;/p&gt;" style="verticalAlign=top;align=left;overflow=fill;fontSize=12;fontFamily=Helvetica;html=1;hachureGap=4;pointerEvents=0;" vertex="1" parent="1">
          <mxGeometry x="510" y="-41" width="160" height="90" as="geometry" />
        </mxCell>
        <mxCell id="k6LRh1UnICJDdB9GZ6B7-5" value="&lt;p style=&quot;margin: 0px ; margin-top: 4px ; text-align: center&quot;&gt;&lt;b&gt;LadderCell&lt;/b&gt;&lt;/p&gt;&lt;hr size=&quot;1&quot;&gt;&lt;p style=&quot;margin: 0px ; margin-left: 4px&quot;&gt;- endpos: Int&lt;/p&gt;&lt;hr size=&quot;1&quot;&gt;&lt;p style=&quot;margin: 0px 0px 0px 4px&quot;&gt;+ getendpos(): int&lt;/p&gt;&lt;p style=&quot;margin: 0px 0px 0px 4px&quot;&gt;+ getpos(): int&lt;/p&gt;" style="verticalAlign=top;align=left;overflow=fill;fontSize=12;fontFamily=Helvetica;html=1;hachureGap=4;pointerEvents=0;" vertex="1" parent="1">
          <mxGeometry x="700" y="-41" width="160" height="90" as="geometry" />
        </mxCell>
        <mxCell id="k6LRh1UnICJDdB9GZ6B7-6" value="Extends" style="endArrow=block;endSize=16;endFill=0;html=1;sourcePerimeterSpacing=8;targetPerimeterSpacing=8;exitX=0.25;exitY=1;exitDx=0;exitDy=0;entryX=0.5;entryY=0;entryDx=0;entryDy=0;" edge="1" parent="1" source="k6LRh1UnICJDdB9GZ6B7-2" target="k6LRh1UnICJDdB9GZ6B7-3">
          <mxGeometry width="160" relative="1" as="geometry">
            <mxPoint x="240" as="sourcePoint" />
            <mxPoint x="410" y="-40" as="targetPoint" />
          </mxGeometry>
        </mxCell>
        <mxCell id="k6LRh1UnICJDdB9GZ6B7-7" value="Extends" style="endArrow=block;endSize=16;endFill=0;html=1;sourcePerimeterSpacing=8;targetPerimeterSpacing=8;exitX=0.5;exitY=1;exitDx=0;exitDy=0;entryX=0.5;entryY=0;entryDx=0;entryDy=0;" edge="1" parent="1" source="k6LRh1UnICJDdB9GZ6B7-2" target="k6LRh1UnICJDdB9GZ6B7-4">
          <mxGeometry width="160" relative="1" as="geometry">
            <mxPoint x="530" y="-70" as="sourcePoint" />
            <mxPoint x="410" y="10" as="targetPoint" />
          </mxGeometry>
        </mxCell>
        <mxCell id="k6LRh1UnICJDdB9GZ6B7-8" value="Extends" style="endArrow=block;endSize=16;endFill=0;html=1;sourcePerimeterSpacing=8;targetPerimeterSpacing=8;exitX=0.75;exitY=1;exitDx=0;exitDy=0;entryX=0.5;entryY=0;entryDx=0;entryDy=0;" edge="1" parent="1" source="k6LRh1UnICJDdB9GZ6B7-2" target="k6LRh1UnICJDdB9GZ6B7-5">
          <mxGeometry width="160" relative="1" as="geometry">
            <mxPoint x="570" y="-70" as="sourcePoint" />
            <mxPoint x="600" y="-31" as="targetPoint" />
          </mxGeometry>
        </mxCell>
        <mxCell id="k6LRh1UnICJDdB9GZ6B7-9" value="&lt;p style=&quot;margin: 0px ; margin-top: 4px ; text-align: center&quot;&gt;&lt;b&gt;Game&lt;/b&gt;&lt;/p&gt;&lt;hr size=&quot;1&quot;&gt;&lt;p style=&quot;margin: 0px ; margin-left: 4px&quot;&gt;- board: Board&lt;/p&gt;&lt;p style=&quot;margin: 0px ; margin-left: 4px&quot;&gt;- players: List&amp;lt;Player&amp;gt;&lt;/p&gt;&amp;nbsp;- TurnQueue : Queue&lt;br&gt;&lt;hr size=&quot;1&quot;&gt;&lt;p style=&quot;margin: 0px ; margin-left: 4px&quot;&gt;+ start(): Type&lt;/p&gt;&lt;p style=&quot;margin: 0px ; margin-left: 4px&quot;&gt;+ identifyTurnofPlayer: Player&lt;/p&gt;" style="verticalAlign=top;align=left;overflow=fill;fontSize=12;fontFamily=Helvetica;html=1;hachureGap=4;pointerEvents=0;" vertex="1" parent="1">
          <mxGeometry x="-230" y="-160" width="180" height="120" as="geometry" />
        </mxCell>
        <mxCell id="k6LRh1UnICJDdB9GZ6B7-10" value="&lt;p style=&quot;margin: 0px ; margin-top: 4px ; text-align: center&quot;&gt;&lt;b&gt;Board&lt;/b&gt;&lt;/p&gt;&lt;hr size=&quot;1&quot;&gt;&lt;p style=&quot;margin: 0px ; margin-left: 4px&quot;&gt;+ cells: List&amp;lt;cells&amp;gt;&lt;/p&gt;&lt;hr size=&quot;1&quot;&gt;&lt;p style=&quot;margin: 0px ; margin-left: 4px&quot;&gt;+ method(): Type&lt;/p&gt;" style="verticalAlign=top;align=left;overflow=fill;fontSize=12;fontFamily=Helvetica;html=1;hachureGap=4;pointerEvents=0;" vertex="1" parent="1">
          <mxGeometry y="-280" width="160" height="90" as="geometry" />
        </mxCell>
        <mxCell id="k6LRh1UnICJDdB9GZ6B7-11" value="&lt;p style=&quot;margin: 0px ; margin-top: 4px ; text-align: center&quot;&gt;&lt;b&gt;PlayerFactory&lt;/b&gt;&lt;/p&gt;&lt;hr size=&quot;1&quot;&gt;&lt;p style=&quot;margin: 0px ; margin-left: 4px&quot;&gt;&lt;br&gt;&lt;/p&gt;&lt;hr size=&quot;1&quot;&gt;&lt;p style=&quot;margin: 0px ; margin-left: 4px&quot;&gt;&lt;span&gt;+ CrtAiPlayer(): AiPlayer&lt;/span&gt;&lt;br&gt;&lt;/p&gt;&lt;p style=&quot;margin: 0px 0px 0px 4px&quot;&gt;+ CrtHumanPlayer(): HumanPlayer&lt;br&gt;&lt;/p&gt;&lt;p style=&quot;margin: 0px 0px 0px 4px&quot;&gt;&lt;br&gt;&lt;/p&gt;" style="verticalAlign=top;align=left;overflow=fill;fontSize=12;fontFamily=Helvetica;html=1;hachureGap=4;pointerEvents=0;" vertex="1" parent="1">
          <mxGeometry x="-10" y="250" width="200" height="120" as="geometry" />
        </mxCell>
        <mxCell id="k6LRh1UnICJDdB9GZ6B7-12" value="&lt;p style=&quot;margin: 0px ; margin-top: 4px ; text-align: center&quot;&gt;&lt;b&gt;User&lt;/b&gt;&lt;/p&gt;&lt;hr size=&quot;1&quot;&gt;&lt;p style=&quot;margin: 0px ; margin-left: 4px&quot;&gt;- id:int&lt;/p&gt;&lt;p style=&quot;margin: 0px ; margin-left: 4px&quot;&gt;- roleId : int&lt;/p&gt;&lt;hr size=&quot;1&quot;&gt;&lt;p style=&quot;margin: 0px ; margin-left: 4px&quot;&gt;+ method(): Type&lt;/p&gt;" style="verticalAlign=top;align=left;overflow=fill;fontSize=12;fontFamily=Helvetica;html=1;hachureGap=4;pointerEvents=0;" vertex="1" parent="1">
          <mxGeometry x="-200" y="40" width="160" height="90" as="geometry" />
        </mxCell>
        <mxCell id="k6LRh1UnICJDdB9GZ6B7-13" value="&lt;p style=&quot;margin: 0px ; margin-top: 4px ; text-align: center&quot;&gt;&lt;b&gt;Role&lt;/b&gt;&lt;/p&gt;&lt;hr size=&quot;1&quot;&gt;&lt;p style=&quot;margin: 0px ; margin-left: 4px&quot;&gt;- id: int&lt;/p&gt;&lt;p style=&quot;margin: 0px ; margin-left: 4px&quot;&gt;&lt;br&gt;&lt;/p&gt;&lt;hr size=&quot;1&quot;&gt;&lt;p style=&quot;margin: 0px ; margin-left: 4px&quot;&gt;+ method(): Type&lt;/p&gt;" style="verticalAlign=top;align=left;overflow=fill;fontSize=12;fontFamily=Helvetica;html=1;hachureGap=4;pointerEvents=0;" vertex="1" parent="1">
          <mxGeometry x="-480" y="33" width="160" height="90" as="geometry" />
        </mxCell>
        <mxCell id="k6LRh1UnICJDdB9GZ6B7-14" value="&lt;p style=&quot;margin: 0px ; margin-top: 4px ; text-align: center&quot;&gt;&lt;b&gt;static Builder&lt;/b&gt;&lt;/p&gt;&lt;hr size=&quot;1&quot;&gt;&lt;p style=&quot;margin: 0px ; margin-left: 4px&quot;&gt;- endpos: Int&lt;/p&gt;&lt;hr size=&quot;1&quot;&gt;&lt;p style=&quot;margin: 0px ; margin-left: 4px&quot;&gt;+ setendpos(): int&lt;/p&gt;&lt;p style=&quot;margin: 0px ; margin-left: 4px&quot;&gt;+ build(): int&lt;/p&gt;" style="verticalAlign=top;align=left;overflow=fill;fontSize=12;fontFamily=Helvetica;html=1;hachureGap=4;pointerEvents=0;" vertex="1" parent="1">
          <mxGeometry x="330" y="110" width="160" height="110" as="geometry" />
        </mxCell>
        <mxCell id="k6LRh1UnICJDdB9GZ6B7-17" value="&lt;p style=&quot;margin: 0px ; margin-top: 4px ; text-align: center&quot;&gt;&lt;b&gt;static Builder&lt;/b&gt;&lt;/p&gt;&lt;hr size=&quot;1&quot;&gt;&lt;p style=&quot;margin: 0px ; margin-left: 4px&quot;&gt;- endpos: Int&lt;/p&gt;&lt;hr size=&quot;1&quot;&gt;&lt;p style=&quot;margin: 0px ; margin-left: 4px&quot;&gt;+ setendpos(): int&lt;/p&gt;&lt;p style=&quot;margin: 0px ; margin-left: 4px&quot;&gt;+ build(): int&lt;/p&gt;" style="verticalAlign=top;align=left;overflow=fill;fontSize=12;fontFamily=Helvetica;html=1;hachureGap=4;pointerEvents=0;" vertex="1" parent="1">
          <mxGeometry x="515" y="110" width="160" height="110" as="geometry" />
        </mxCell>
        <mxCell id="k6LRh1UnICJDdB9GZ6B7-18" value="&lt;p style=&quot;margin: 0px ; margin-top: 4px ; text-align: center&quot;&gt;&lt;b&gt;static Builder&lt;/b&gt;&lt;/p&gt;&lt;hr size=&quot;1&quot;&gt;&lt;p style=&quot;margin: 0px ; margin-left: 4px&quot;&gt;- endpos: Int&lt;/p&gt;&lt;hr size=&quot;1&quot;&gt;&lt;p style=&quot;margin: 0px ; margin-left: 4px&quot;&gt;+ setendpos(): int&lt;/p&gt;&lt;p style=&quot;margin: 0px ; margin-left: 4px&quot;&gt;+ build(): int&lt;/p&gt;" style="verticalAlign=top;align=left;overflow=fill;fontSize=12;fontFamily=Helvetica;html=1;hachureGap=4;pointerEvents=0;" vertex="1" parent="1">
          <mxGeometry x="700" y="110" width="160" height="110" as="geometry" />
        </mxCell>
        <mxCell id="k6LRh1UnICJDdB9GZ6B7-19" value="" style="endArrow=open;startArrow=circlePlus;endFill=0;startFill=0;endSize=8;html=1;sourcePerimeterSpacing=8;targetPerimeterSpacing=8;exitX=0.463;exitY=0.009;exitDx=0;exitDy=0;exitPerimeter=0;entryX=0.5;entryY=1;entryDx=0;entryDy=0;" edge="1" parent="1" source="k6LRh1UnICJDdB9GZ6B7-14" target="k6LRh1UnICJDdB9GZ6B7-3">
          <mxGeometry width="160" relative="1" as="geometry">
            <mxPoint x="400" y="70" as="sourcePoint" />
            <mxPoint x="380" as="targetPoint" />
          </mxGeometry>
        </mxCell>
        <mxCell id="k6LRh1UnICJDdB9GZ6B7-20" value="" style="endArrow=open;startArrow=circlePlus;endFill=0;startFill=0;endSize=8;html=1;sourcePerimeterSpacing=8;targetPerimeterSpacing=8;exitX=0.5;exitY=0;exitDx=0;exitDy=0;entryX=0.5;entryY=1;entryDx=0;entryDy=0;" edge="1" parent="1" source="k6LRh1UnICJDdB9GZ6B7-17" target="k6LRh1UnICJDdB9GZ6B7-4">
          <mxGeometry width="160" relative="1" as="geometry">
            <mxPoint x="414.0799999999999" y="120.99000000000001" as="sourcePoint" />
            <mxPoint x="410" y="59" as="targetPoint" />
          </mxGeometry>
        </mxCell>
        <mxCell id="k6LRh1UnICJDdB9GZ6B7-21" value="" style="endArrow=open;startArrow=circlePlus;endFill=0;startFill=0;endSize=8;html=1;sourcePerimeterSpacing=8;targetPerimeterSpacing=8;exitX=0.5;exitY=0;exitDx=0;exitDy=0;" edge="1" parent="1" source="k6LRh1UnICJDdB9GZ6B7-18">
          <mxGeometry width="160" relative="1" as="geometry">
            <mxPoint x="610" y="120" as="sourcePoint" />
            <mxPoint x="780" y="50" as="targetPoint" />
          </mxGeometry>
        </mxCell>
        <mxCell id="k6LRh1UnICJDdB9GZ6B7-22" value="&lt;p style=&quot;margin: 0px ; margin-top: 4px ; text-align: center&quot;&gt;&lt;b&gt;CellFactory&lt;/b&gt;&lt;/p&gt;&lt;hr size=&quot;1&quot;&gt;&lt;p style=&quot;margin: 0px ; margin-left: 4px&quot;&gt;&lt;br&gt;&lt;/p&gt;&lt;hr size=&quot;1&quot;&gt;&lt;p style=&quot;margin: 0px ; margin-left: 4px&quot;&gt;+ CrtNormalCell(): NormalCell&lt;/p&gt;&lt;p style=&quot;margin: 0px ; margin-left: 4px&quot;&gt;+ CrtSnakeCell(): SnakeCell&lt;br&gt;&lt;/p&gt;&lt;p style=&quot;margin: 0px ; margin-left: 4px&quot;&gt;+ CrtLadderCell(): LadderCell&lt;br&gt;&lt;/p&gt;" style="verticalAlign=top;align=left;overflow=fill;fontSize=12;fontFamily=Helvetica;html=1;hachureGap=4;pointerEvents=0;" vertex="1" parent="1">
          <mxGeometry x="230" y="-200" width="180" height="120" as="geometry" />
        </mxCell>
        <mxCell id="k6LRh1UnICJDdB9GZ6B7-23" value="&lt;p style=&quot;margin: 0px ; margin-top: 4px ; text-align: center&quot;&gt;&lt;i&gt;Player&lt;/i&gt;&lt;/p&gt;&lt;hr size=&quot;1&quot;&gt;&lt;p style=&quot;margin: 0px ; margin-left: 4px&quot;&gt;+ cells: List&amp;lt;cells&amp;gt;&lt;/p&gt;&lt;hr size=&quot;1&quot;&gt;&lt;p style=&quot;margin: 0px ; margin-left: 4px&quot;&gt;+ makeAMove(): Type&lt;/p&gt;&lt;p style=&quot;margin: 0px 0px 0px 4px&quot;&gt;&lt;br&gt;&lt;/p&gt;" style="verticalAlign=top;align=left;overflow=fill;fontSize=12;fontFamily=Helvetica;html=1;hachureGap=4;pointerEvents=0;" vertex="1" parent="1">
          <mxGeometry x="480" y="250" width="160" height="120" as="geometry" />
        </mxCell>
        <mxCell id="k6LRh1UnICJDdB9GZ6B7-24" value="&lt;p style=&quot;margin: 0px ; margin-top: 4px ; text-align: center&quot;&gt;&lt;b&gt;AiPlayer&lt;/b&gt;&lt;/p&gt;&lt;hr size=&quot;1&quot;&gt;&lt;p style=&quot;margin: 0px ; margin-left: 4px&quot;&gt;- symbol: Enum&lt;/p&gt;&lt;hr size=&quot;1&quot;&gt;+ makeAMove(): Type&lt;p style=&quot;margin: 0px ; margin-left: 4px&quot;&gt;&lt;br&gt;&lt;/p&gt;" style="verticalAlign=top;align=left;overflow=fill;fontSize=12;fontFamily=Helvetica;html=1;hachureGap=4;pointerEvents=0;" vertex="1" parent="1">
          <mxGeometry x="370" y="430" width="160" height="90" as="geometry" />
        </mxCell>
        <mxCell id="k6LRh1UnICJDdB9GZ6B7-25" value="&lt;p style=&quot;margin: 0px ; margin-top: 4px ; text-align: center&quot;&gt;&lt;b&gt;HumanPlayer&lt;/b&gt;&lt;/p&gt;&lt;hr size=&quot;1&quot;&gt;&lt;p style=&quot;margin: 0px ; margin-left: 4px&quot;&gt;- symbol: Enum&lt;/p&gt;&lt;hr size=&quot;1&quot;&gt;+ makeAMove(): Type&lt;p style=&quot;margin: 0px 0px 0px 4px&quot;&gt;&lt;br&gt;&lt;/p&gt;" style="verticalAlign=top;align=left;overflow=fill;fontSize=12;fontFamily=Helvetica;html=1;hachureGap=4;pointerEvents=0;" vertex="1" parent="1">
          <mxGeometry x="620" y="430" width="160" height="90" as="geometry" />
        </mxCell>
        <mxCell id="k6LRh1UnICJDdB9GZ6B7-27" value="&lt;p style=&quot;margin: 0px ; margin-top: 4px ; text-align: center&quot;&gt;&lt;b&gt;static Builder&lt;/b&gt;&lt;/p&gt;&lt;hr size=&quot;1&quot;&gt;&lt;p style=&quot;margin: 0px ; margin-left: 4px&quot;&gt;- Aiplayer: Player&lt;/p&gt;&lt;hr size=&quot;1&quot;&gt;&lt;p style=&quot;margin: 0px ; margin-left: 4px&quot;&gt;+ setsymbol(): Enum&lt;/p&gt;&lt;p style=&quot;margin: 0px ; margin-left: 4px&quot;&gt;+ build(): int&lt;/p&gt;" style="verticalAlign=top;align=left;overflow=fill;fontSize=12;fontFamily=Helvetica;html=1;hachureGap=4;pointerEvents=0;" vertex="1" parent="1">
          <mxGeometry x="380" y="581" width="160" height="110" as="geometry" />
        </mxCell>
        <mxCell id="k6LRh1UnICJDdB9GZ6B7-28" value="&lt;p style=&quot;margin: 0px ; margin-top: 4px ; text-align: center&quot;&gt;&lt;b&gt;static Builder&lt;/b&gt;&lt;/p&gt;&lt;hr size=&quot;1&quot;&gt;&lt;p style=&quot;margin: 0px ; margin-left: 4px&quot;&gt;- HPlayer: Player&lt;/p&gt;&lt;hr size=&quot;1&quot;&gt;&lt;p style=&quot;margin: 0px ; margin-left: 4px&quot;&gt;+ setsymbol(): Enum&lt;/p&gt;&lt;p style=&quot;margin: 0px ; margin-left: 4px&quot;&gt;+ build(): int&lt;/p&gt;" style="verticalAlign=top;align=left;overflow=fill;fontSize=12;fontFamily=Helvetica;html=1;hachureGap=4;pointerEvents=0;" vertex="1" parent="1">
          <mxGeometry x="625" y="581" width="160" height="110" as="geometry" />
        </mxCell>
        <mxCell id="k6LRh1UnICJDdB9GZ6B7-30" value="" style="endArrow=open;startArrow=circlePlus;endFill=0;startFill=0;endSize=8;html=1;sourcePerimeterSpacing=8;targetPerimeterSpacing=8;exitX=0.463;exitY=0.009;exitDx=0;exitDy=0;exitPerimeter=0;entryX=0.5;entryY=1;entryDx=0;entryDy=0;" edge="1" parent="1" source="k6LRh1UnICJDdB9GZ6B7-27" target="k6LRh1UnICJDdB9GZ6B7-24">
          <mxGeometry width="160" relative="1" as="geometry">
            <mxPoint x="450" y="541" as="sourcePoint" />
            <mxPoint x="430" y="471" as="targetPoint" />
          </mxGeometry>
        </mxCell>
        <mxCell id="k6LRh1UnICJDdB9GZ6B7-31" value="" style="endArrow=open;startArrow=circlePlus;endFill=0;startFill=0;endSize=8;html=1;sourcePerimeterSpacing=8;targetPerimeterSpacing=8;exitX=0.5;exitY=0;exitDx=0;exitDy=0;entryX=0.5;entryY=1;entryDx=0;entryDy=0;" edge="1" parent="1" source="k6LRh1UnICJDdB9GZ6B7-28" target="k6LRh1UnICJDdB9GZ6B7-25">
          <mxGeometry width="160" relative="1" as="geometry">
            <mxPoint x="524.0799999999999" y="591.99" as="sourcePoint" />
            <mxPoint x="520" y="530" as="targetPoint" />
          </mxGeometry>
        </mxCell>
        <mxCell id="k6LRh1UnICJDdB9GZ6B7-33" value="Extends" style="endArrow=block;endSize=16;endFill=0;html=1;sourcePerimeterSpacing=8;targetPerimeterSpacing=8;exitX=0.25;exitY=1;exitDx=0;exitDy=0;entryX=0.5;entryY=0;entryDx=0;entryDy=0;" edge="1" parent="1" target="k6LRh1UnICJDdB9GZ6B7-24">
          <mxGeometry width="160" relative="1" as="geometry">
            <mxPoint x="550" y="370" as="sourcePoint" />
            <mxPoint x="430" y="409" as="targetPoint" />
          </mxGeometry>
        </mxCell>
        <mxCell id="k6LRh1UnICJDdB9GZ6B7-34" value="Extends" style="endArrow=block;endSize=16;endFill=0;html=1;sourcePerimeterSpacing=8;targetPerimeterSpacing=8;entryX=0.5;entryY=0;entryDx=0;entryDy=0;exitX=0.75;exitY=1;exitDx=0;exitDy=0;" edge="1" parent="1" source="k6LRh1UnICJDdB9GZ6B7-23" target="k6LRh1UnICJDdB9GZ6B7-25">
          <mxGeometry width="160" relative="1" as="geometry">
            <mxPoint x="685" y="380" as="sourcePoint" />
            <mxPoint x="640" y="430" as="targetPoint" />
          </mxGeometry>
        </mxCell>
        <mxCell id="k6LRh1UnICJDdB9GZ6B7-35" value="&lt;p style=&quot;margin: 0px ; margin-top: 4px ; text-align: center&quot;&gt;&lt;b&gt;Dice&lt;/b&gt;&lt;/p&gt;&lt;hr size=&quot;1&quot;&gt;&lt;p style=&quot;margin: 0px ; margin-left: 4px&quot;&gt;- MaxNos: int&lt;/p&gt;&lt;p style=&quot;margin: 0px ; margin-left: 4px&quot;&gt;&lt;br&gt;&lt;/p&gt;&lt;hr size=&quot;1&quot;&gt;&lt;p style=&quot;margin: 0px ; margin-left: 4px&quot;&gt;+ genNbrs(): Int&lt;/p&gt;" style="verticalAlign=top;align=left;overflow=fill;fontSize=12;fontFamily=Helvetica;html=1;hachureGap=4;pointerEvents=0;" vertex="1" parent="1">
          <mxGeometry x="-10" y="49" width="160" height="90" as="geometry" />
        </mxCell>
        <mxCell id="k6LRh1UnICJDdB9GZ6B7-37" value="" style="endArrow=diamondThin;endFill=1;endSize=24;html=1;sourcePerimeterSpacing=8;targetPerimeterSpacing=8;exitX=0.5;exitY=1;exitDx=0;exitDy=0;entryX=0.5;entryY=0;entryDx=0;entryDy=0;" edge="1" parent="1" source="k6LRh1UnICJDdB9GZ6B7-9" target="k6LRh1UnICJDdB9GZ6B7-12">
          <mxGeometry width="160" relative="1" as="geometry">
            <mxPoint x="20" y="-30" as="sourcePoint" />
            <mxPoint x="180" y="-30" as="targetPoint" />
          </mxGeometry>
        </mxCell>
        <mxCell id="k6LRh1UnICJDdB9GZ6B7-38" value="" style="endArrow=diamondThin;endFill=1;endSize=24;html=1;sourcePerimeterSpacing=8;targetPerimeterSpacing=8;entryX=0;entryY=0.5;entryDx=0;entryDy=0;exitX=0.994;exitY=0.578;exitDx=0;exitDy=0;exitPerimeter=0;" edge="1" parent="1" source="k6LRh1UnICJDdB9GZ6B7-13" target="k6LRh1UnICJDdB9GZ6B7-12">
          <mxGeometry width="160" relative="1" as="geometry">
            <mxPoint x="-390" y="74.5" as="sourcePoint" />
            <mxPoint x="-230" y="74.5" as="targetPoint" />
          </mxGeometry>
        </mxCell>
        <mxCell id="k6LRh1UnICJDdB9GZ6B7-39" value="" style="endArrow=diamondThin;endFill=1;endSize=24;html=1;sourcePerimeterSpacing=8;targetPerimeterSpacing=8;exitX=1;exitY=0.25;exitDx=0;exitDy=0;entryX=0.5;entryY=0;entryDx=0;entryDy=0;" edge="1" parent="1" source="k6LRh1UnICJDdB9GZ6B7-10" target="k6LRh1UnICJDdB9GZ6B7-2">
          <mxGeometry width="160" relative="1" as="geometry">
            <mxPoint x="40" y="-10" as="sourcePoint" />
            <mxPoint x="200" y="-10" as="targetPoint" />
            <Array as="points">
              <mxPoint x="570" y="-260" />
            </Array>
          </mxGeometry>
        </mxCell>
        <mxCell id="k6LRh1UnICJDdB9GZ6B7-40" value="" style="endArrow=diamondThin;endFill=1;endSize=24;html=1;sourcePerimeterSpacing=8;targetPerimeterSpacing=8;exitX=1;exitY=0.5;exitDx=0;exitDy=0;entryX=0.5;entryY=0;entryDx=0;entryDy=0;" edge="1" parent="1" source="k6LRh1UnICJDdB9GZ6B7-9" target="k6LRh1UnICJDdB9GZ6B7-35">
          <mxGeometry width="160" relative="1" as="geometry">
            <mxPoint x="50" as="sourcePoint" />
            <mxPoint x="210" as="targetPoint" />
            <Array as="points">
              <mxPoint x="70" y="-101" />
            </Array>
          </mxGeometry>
        </mxCell>
        <mxCell id="k6LRh1UnICJDdB9GZ6B7-41" value="" style="endArrow=diamondThin;endFill=1;endSize=24;html=1;sourcePerimeterSpacing=8;targetPerimeterSpacing=8;exitX=0.55;exitY=0.008;exitDx=0;exitDy=0;exitPerimeter=0;entryX=-0.012;entryY=0.356;entryDx=0;entryDy=0;entryPerimeter=0;" edge="1" parent="1" source="k6LRh1UnICJDdB9GZ6B7-9" target="k6LRh1UnICJDdB9GZ6B7-10">
          <mxGeometry width="160" relative="1" as="geometry">
            <mxPoint x="-130" y="-180" as="sourcePoint" />
            <mxPoint x="30" y="-180" as="targetPoint" />
            <Array as="points">
              <mxPoint x="-131" y="-248" />
            </Array>
          </mxGeometry>
        </mxCell>
        <mxCell id="k6LRh1UnICJDdB9GZ6B7-42" value="" style="endArrow=diamondThin;endFill=1;endSize=24;html=1;sourcePerimeterSpacing=8;targetPerimeterSpacing=8;exitX=0;exitY=1;exitDx=0;exitDy=0;entryX=0;entryY=0;entryDx=0;entryDy=0;" edge="1" parent="1" source="k6LRh1UnICJDdB9GZ6B7-9" target="k6LRh1UnICJDdB9GZ6B7-23">
          <mxGeometry width="160" relative="1" as="geometry">
            <mxPoint x="70" y="20" as="sourcePoint" />
            <mxPoint x="230" y="20" as="targetPoint" />
            <Array as="points">
              <mxPoint x="-230" y="240" />
            </Array>
          </mxGeometry>
        </mxCell>
      </root>
    </mxGraphModel>
  </diagram>
</mxfile>
